<?xml version="1.0" encoding="UTF-8"?>
<svg id="Layer_2" data-name="Layer 2" xmlns="http://www.w3.org/2000/svg" viewBox="0 0 906.95 170.96">
  <defs>
    <style>
      .cls-1 {
        fill: #c8ff00;
      }

      .cls-2 {
        fill: #0e0e10;
      }
    </style>
  </defs>
  <g id="Layer_1-2" data-name="Layer 1">
    <g>
      <g>
        <path class="cls-1" d="M88.63,133.92l-42.88,37.04h120.31l-68.75-85.48h15.06c23.61,0,42.74-19.14,42.74-42.74h0c0-23.61-19.14-42.74-42.74-42.74h-23.73v133.92Z"/>
        <path class="cls-1" d="M44.31,37.04L87.2,0H0v170.96h44.31V37.04Z"/>
      </g>
      <g>
        <path class="cls-2" d="M231.55,28.49v113.98h-19.95V28.49h19.95Z"/>
        <path class="cls-2" d="M268.29,142.47h-19.03v-77.05h17.59l1.6,9.97c2.38-3.86,5.77-6.86,10.16-9.02,4.39-2.16,9.22-3.24,14.5-3.24,9.54,0,16.81,2.79,21.81,8.38,5,5.58,7.5,13.43,7.5,23.53v47.43h-19.03v-42.86c0-6.29-1.43-11.06-4.3-14.31-2.87-3.25-6.84-4.87-11.92-4.87-5.84,0-10.44,1.85-13.82,5.56-3.38,3.71-5.06,8.71-5.06,15v41.49Z"/>
        <path class="cls-2" d="M345.91,50.04c-3.25,0-6.01-1.13-8.3-3.39-2.28-2.26-3.43-4.99-3.43-8.18s1.13-5.9,3.39-8.11c2.26-2.21,5.04-3.31,8.34-3.31s5.82,1.1,8.03,3.31,3.31,4.91,3.31,8.11-1.1,5.93-3.31,8.18c-2.21,2.26-4.89,3.39-8.03,3.39ZM336.4,142.47v-77.05h19.03v77.05h-19.03Z"/>
        <path class="cls-2" d="M396.51,142.47h-19.03v-61.14h-14.77v-15.91h14.77v-23.98h19.03v23.98h15v15.91h-15v61.14Z"/>
        <path class="cls-2" d="M441.4,142.47h-19.95V28.49h43.47c12.94,0,23.02,3.12,30.23,9.37,7.21,6.24,10.81,14.97,10.81,26.19,0,7.61-1.75,14.11-5.25,19.49-3.5,5.38-8.6,9.44-15.3,12.18l21.62,46.75h-21.77l-19.34-42.56h-24.52v42.56ZM441.4,46.23v36.01h23.53c6.34,0,11.28-1.59,14.81-4.76,3.53-3.17,5.29-7.65,5.29-13.44s-1.76-10.08-5.29-13.17c-3.53-3.09-8.46-4.64-14.81-4.64h-23.53Z"/>
        <path class="cls-2" d="M568.28,65.42h19.03v77.05h-17.59l-1.45-10.28c-2.33,3.65-5.8,6.62-10.39,8.91-4.59,2.28-9.45,3.43-14.58,3.43-8.78,0-15.67-2.78-20.67-8.34-5-5.56-7.5-13.08-7.5-22.57v-48.19h19.03v41.49c0,7.16,1.37,12.37,4.11,15.65,2.74,3.27,6.83,4.91,12.26,4.91,6.04,0,10.51-1.76,13.4-5.29,2.89-3.53,4.34-8.97,4.34-16.33v-40.43Z"/>
        <path class="cls-2" d="M621.24,142.47h-19.03v-77.05h17.59l1.6,9.97c2.38-3.86,5.77-6.86,10.16-9.02,4.39-2.16,9.22-3.24,14.5-3.24,9.54,0,16.81,2.79,21.81,8.38,5,5.58,7.5,13.43,7.5,23.53v47.43h-19.03v-42.86c0-6.29-1.43-11.06-4.3-14.31-2.87-3.25-6.84-4.87-11.92-4.87-5.84,0-10.44,1.85-13.82,5.56-3.38,3.71-5.06,8.71-5.06,15v41.49Z"/>
        <path class="cls-2" d="M708.38,142.47h-19.03v-77.05h17.59l1.6,9.97c2.38-3.86,5.77-6.86,10.16-9.02,4.39-2.16,9.22-3.24,14.5-3.24,9.54,0,16.81,2.79,21.81,8.38,5,5.58,7.5,13.43,7.5,23.53v47.43h-19.03v-42.86c0-6.29-1.43-11.06-4.3-14.31-2.87-3.25-6.84-4.87-11.92-4.87-5.84,0-10.44,1.85-13.82,5.56-3.38,3.71-5.06,8.71-5.06,15v41.49Z"/>
        <path class="cls-2" d="M810.98,144.52c-11.47,0-20.84-3.78-28.09-11.34-7.26-7.56-10.89-17.31-10.89-29.24s3.55-21.9,10.66-29.46c7.11-7.56,16.32-11.34,27.64-11.34s20.7,3.57,27.52,10.7c6.83,7.13,10.24,16.71,10.24,28.74v5.71l-58.02.23c1.37,13.6,8.45,20.41,21.24,20.41,5.18,0,9.44-.99,12.79-2.97,3.35-1.98,5.58-4.8,6.7-8.45h17.59c-1.62,8.43-5.75,15.04-12.37,19.83-6.62,4.8-14.96,7.2-25.01,7.2ZM810.45,78.67c-5.58,0-10.06,1.5-13.44,4.49-3.38,3-5.55,7.38-6.51,13.17h38.68c0-5.33-1.7-9.6-5.1-12.83-3.4-3.22-7.94-4.83-13.63-4.83Z"/>
        <path class="cls-2" d="M906.95,65.11v17.66h-7c-7,0-12.47,1.87-16.41,5.6-3.93,3.73-5.9,9.28-5.9,16.64v37.46h-19.03v-76.9h17.97l1.07,11.27c1.67-3.91,4.31-7.02,7.92-9.33,3.6-2.31,7.92-3.46,12.94-3.46,2.74,0,5.56.36,8.45,1.07Z"/>
      </g>
    </g>
  </g>
</svg>